<svg xmlns="http://www.w3.org/2000/svg" version="1.1" xmlns:xlink="http://www.w3.org/1999/xlink" xmlns:svgjs="http://svgjs.dev/svgjs" width="1500" height="549" viewBox="0 0 1500 549"><g transform="matrix(1,0,0,1,-0.9090909090909918,0.0028447875565689174)"><svg viewBox="0 0 396 145" data-background-color="#000000" preserveAspectRatio="xMidYMid meet" height="549" width="1500" xmlns="http://www.w3.org/2000/svg" xmlns:xlink="http://www.w3.org/1999/xlink"><g id="tight-bounds" transform="matrix(1,0,0,1,0.2400000000000091,-0.0007513555477345335)"><svg viewBox="0 0 395.52 145.00150271109547" height="145.00150271109547" width="395.52"><g><svg viewBox="0 0 666.7344110207091 244.43135999999998" height="145.00150271109547" width="395.52"><g transform="matrix(1,0,0,1,0,17.042320352529572)"><svg viewBox="0 0 395.52 210.34671929494084" height="210.34671929494084" width="395.52"><g id="textblocktransform"><svg viewBox="0 0 395.52 210.34671929494084" height="210.34671929494084" width="395.52" id="textblock"><g><svg viewBox="0 0 395.52 113.45096926713946" height="113.45096926713946" width="395.52"><g transform="matrix(1,0,0,1,0,0)"><svg width="395.52" viewBox="1.75 -36 126.88999999999999 36.4" height="113.45096926713946" data-palette-color="#ababab"><path d="M23.35-23.85L23.35-12.05Q23.35-9.05 23.73-7.03 24.1-5 24.55-3.75L24.55-3.75Q25.1-2.25 25.75-1.4L25.75-1.4 21.3 0.4Q20.65-0.25 20.1-1.15L20.1-1.15Q19.65-1.95 19.25-3.08 18.85-4.2 18.75-5.75L18.75-5.75Q17.9-2.75 16.03-1.23 14.15 0.3 10.95 0.3L10.95 0.3Q8.6 0.3 6.88-0.58 5.15-1.45 4-3.08 2.85-4.7 2.3-7 1.75-9.3 1.75-12.1L1.75-12.1Q1.75-14.95 2.63-17.38 3.5-19.8 5.08-21.55 6.65-23.3 8.85-24.3 11.05-25.3 13.7-25.3L13.7-25.3Q15.2-25.3 16.82-25.08 18.45-24.85 19.85-24.6 21.25-24.35 22.23-24.13 23.2-23.9 23.35-23.85L23.35-23.85ZM11.9-3.7Q13.15-3.7 14.2-4.55 15.25-5.4 16.03-6.78 16.8-8.15 17.23-9.93 17.65-11.7 17.65-13.55L17.65-13.55 17.65-20.75Q17.15-20.9 16.15-21.1 15.15-21.3 14.35-21.3L14.35-21.3Q12.45-21.3 11.23-20.65 10-20 9.25-18.85 8.5-17.7 8.2-16.1 7.9-14.5 7.9-12.6L7.9-12.6Q7.9-10.85 8-9.25 8.1-7.65 8.53-6.4 8.95-5.15 9.75-4.42 10.55-3.7 11.9-3.7L11.9-3.7ZM63.25 0L57.6 0 57.6-16.3Q57.6-18.4 56.95-19.63 56.3-20.85 54.7-20.85L54.7-20.85Q53.75-20.85 52.77-20.33 51.8-19.8 51-18.8 50.2-17.8 49.7-16.4 49.2-15 49.2-13.3L49.2-13.3 49.2 0 43.55 0 43.55-16.3Q43.55-18.4 42.9-19.63 42.25-20.85 40.65-20.85L40.65-20.85Q39.65-20.85 38.67-20.28 37.7-19.7 36.92-18.6 36.15-17.5 35.67-15.93 35.2-14.35 35.2-12.4L35.2-12.4 35.2 0 29.5 0 29.5-12.6Q29.5-15.6 29.1-17.63 28.7-19.65 28.25-20.9L28.25-20.9Q27.7-22.35 27.05-23.25L27.05-23.25 31.55-25.05Q32.05-24.5 32.55-23.7L32.55-23.7Q32.95-23 33.35-21.98 33.75-20.95 34-19.65L34-19.65Q35.25-22.65 37.52-23.98 39.8-25.3 42.35-25.3L42.35-25.3Q44.9-25.3 46.32-24 47.75-22.7 48.45-20.65L48.45-20.65Q49.8-23.15 51.92-24.23 54.05-25.3 56.4-25.3L56.4-25.3Q58.35-25.3 59.67-24.68 61-24.05 61.77-22.93 62.55-21.8 62.9-20.23 63.25-18.65 63.25-16.7L63.25-16.7 63.25 0ZM74.75 0.2Q72.09 0.2 70.7-1.38 69.3-2.95 69.3-5.45L69.3-5.45 69.3-24.9 75-24.9 75-5.95Q75-4.8 75.34-4.4 75.7-4 76.4-4L76.4-4Q76.59-4 76.82-4 77.05-4 77.25-4.05L77.25-4.05Q77.45-4.05 77.7-4.1L77.7-4.1 78.3-0.5Q77.95-0.3 77.4-0.15L77.4-0.15Q76.95 0 76.27 0.1 75.59 0.2 74.75 0.2L74.75 0.2ZM72.25-36Q73.84-36 74.7-35.05 75.55-34.1 75.55-32.6L75.55-32.6Q75.55-31.1 74.67-30.1 73.8-29.1 72.09-29.1L72.09-29.1Q70.5-29.1 69.62-30.08 68.75-31.05 68.75-32.45L68.75-32.45Q68.75-34 69.62-35 70.5-36 72.25-36L72.25-36ZM103.44 0L97.79 0 97.79-16.15Q97.79-18.25 97.04-19.53 96.29-20.8 94.49-20.8L94.49-20.8Q93.34-20.8 92.27-20.23 91.19-19.65 90.34-18.55 89.49-17.45 88.97-15.88 88.44-14.3 88.44-12.35L88.44-12.35 88.44 0 82.74 0 82.74-12.6Q82.74-15.6 82.34-17.63 81.94-19.65 81.49-20.9L81.49-20.9Q80.94-22.35 80.29-23.25L80.29-23.25 84.79-25.05Q85.29-24.5 85.79-23.7L85.79-23.7Q86.19-23 86.59-21.98 86.99-20.95 87.24-19.65L87.24-19.65Q88.54-22.65 90.99-23.98 93.44-25.3 96.14-25.3L96.14-25.3Q99.99-25.3 101.72-22.98 103.44-20.65 103.44-16.7L103.44-16.7 103.44 0ZM108.24-11.85Q108.24-15.2 109.17-17.75 110.09-20.3 111.72-22.03 113.34-23.75 115.54-24.63 117.74-25.5 120.29-25.5L120.29-25.5Q122.54-25.5 124.12-24.95 125.69-24.4 126.69-23.45 127.69-22.5 128.17-21.2 128.64-19.9 128.64-18.4L128.64-18.4Q128.64-16.6 127.64-14.98 126.64-13.35 124.77-12.13 122.89-10.9 120.24-10.18 117.59-9.45 114.29-9.4L114.29-9.4Q114.44-8.25 114.77-7.23 115.09-6.2 115.72-5.43 116.34-4.65 117.34-4.2 118.34-3.75 119.84-3.75L119.84-3.75Q120.94-3.75 122.19-4 123.44-4.25 124.49-4.6L124.49-4.6Q125.74-5 126.94-5.5L126.94-5.5 128.44-1.95Q127.14-1.3 125.64-0.8L125.64-0.8Q124.34-0.35 122.64 0 120.94 0.35 119.04 0.35L119.04 0.35Q116.14 0.35 114.09-0.53 112.04-1.4 110.74-3 109.44-4.6 108.84-6.85 108.24-9.1 108.24-11.85L108.24-11.85ZM119.84-21.6Q118.19-21.6 117.12-20.83 116.04-20.05 115.39-18.82 114.74-17.6 114.47-16.07 114.19-14.55 114.14-13L114.14-13Q116.54-13.1 118.22-13.63 119.89-14.15 120.94-14.93 121.99-15.7 122.47-16.6 122.94-17.5 122.94-18.4L122.94-18.4Q122.94-19.85 122.09-20.73 121.24-21.6 119.84-21.6L119.84-21.6Z" opacity="1" transform="matrix(1,0,0,1,0,0)" fill="#ababab" class="wordmark-text-0" data-fill-palette-color="primary" id="text-0"></path></svg></g></svg></g><g transform="matrix(1,0,0,1,260.4801921947323,140.23402028784867)"><svg viewBox="0 0 135.03980780526769 70.11269900709219" height="70.11269900709219" width="135.03980780526769"><g transform="matrix(1,0,0,1,0,0)"><svg width="135.03980780526769" viewBox="2.127906976744186 -37 72.21209302325582 37.5" height="70.11269900709219" data-palette-color="#e1202a"><path d="M2.5-4.05L2.5-4.05Q2.1-4.65 2.13-5.23 2.15-5.8 2.75-6.15L2.75-6.15Q3.15-6.5 3.68-6.45 4.2-6.4 4.65-5.95L4.65-5.95Q6-4.2 7.93-3.13 9.85-2.05 12.5-2.05L12.5-2.05Q13.9-2.05 15.28-2.53 16.65-3 17.55-3.98 18.45-4.95 18.45-6.45L18.45-6.45Q18.45-8 17.55-8.95 16.65-9.9 15.23-10.45 13.8-11 12.2-11.4L12.2-11.4Q10.5-11.85 8.9-12.43 7.3-13 6.08-13.88 4.85-14.75 4.1-16 3.35-17.25 3.35-19.05L3.35-19.05Q3.35-21.15 4.5-22.75 5.65-24.35 7.63-25.25 9.6-26.15 12.1-26.15L12.1-26.15Q13.35-26.15 14.8-25.83 16.25-25.5 17.65-24.75 19.05-24 20.15-22.7L20.15-22.7Q20.6-22.25 20.6-21.68 20.6-21.1 20.1-20.65L20.1-20.65Q19.7-20.35 19.18-20.35 18.65-20.35 18.3-20.75L18.3-20.75Q17.1-22.1 15.45-22.8 13.8-23.5 11.9-23.5L11.9-23.5Q10.45-23.5 9.18-23.03 7.9-22.55 7.05-21.6 6.2-20.65 6.2-19.1L6.2-19.1Q6.3-17.65 7.23-16.75 8.15-15.85 9.68-15.25 11.2-14.65 13.1-14.15L13.1-14.15Q14.7-13.75 16.18-13.2 17.65-12.65 18.78-11.83 19.9-11 20.58-9.75 21.25-8.5 21.25-6.6L21.25-6.6Q21.25-4.4 20.03-2.8 18.8-1.2 16.75-0.35 14.7 0.5 12.2 0.5L12.2 0.5Q9.5 0.5 6.98-0.55 4.45-1.6 2.5-4.05ZM39.05-25.75L39.05-25.75Q42.2-25.75 44.15-24.4 46.1-23.05 47.02-20.75 47.95-18.45 47.95-15.65L47.95-15.65 47.95-1.5Q47.95-0.9 47.5-0.45 47.05 0 46.45 0L46.45 0Q45.75 0 45.35-0.45 44.95-0.9 44.95-1.5L44.95-1.5 44.95-15.65Q44.95-17.7 44.32-19.35 43.7-21 42.3-21.98 40.9-22.95 38.55-22.95L38.55-22.95Q36.45-22.95 34.57-21.98 32.7-21 31.55-19.35 30.4-17.7 30.4-15.65L30.4-15.65 30.4-1.5Q30.4-0.9 29.95-0.45 29.5 0 28.9 0L28.9 0Q28.2 0 27.8-0.45 27.4-0.9 27.4-1.5L27.4-1.5 27.4-35.5Q27.4-36.1 27.82-36.55 28.25-37 28.9-37L28.9-37Q29.55-37 29.97-36.55 30.4-36.1 30.4-35.5L30.4-35.5 30.4-19.3 29.25-17.55Q29.35-19.1 30.22-20.58 31.1-22.05 32.5-23.23 33.9-24.4 35.6-25.08 37.3-25.75 39.05-25.75ZM55.1-25.8L55.1-25.8Q55.85-25.8 56.3-25.15L56.3-25.15 74-2.25Q74.34-1.85 74.34-1.35L74.34-1.35Q74.34-0.75 73.9-0.3 73.45 0.15 72.84 0.15L72.84 0.15Q72.15 0.15 71.59-0.5L71.59-0.5 53.85-23.4Q53.55-23.75 53.55-24.3L53.55-24.3Q53.55-24.95 54.02-25.38 54.5-25.8 55.1-25.8ZM55.1 0.15L55.1 0.15Q54.6 0.15 54.12-0.2 53.65-0.55 53.65-1.2L53.65-1.2Q53.65-1.75 54-2.15L54-2.15 62.45-13 64.09-10.6 56.3-0.45Q55.85 0.15 55.1 0.15ZM72.84-25.8L72.84-25.8Q73.5-25.8 73.87-25.43 74.25-25.05 74.25-24.5L74.25-24.5Q74.25-24.25 74.17-24 74.09-23.75 73.9-23.55L73.9-23.55 65.45-12.45 63.9-14.85 71.59-25.15Q72.15-25.8 72.84-25.8Z" opacity="1" transform="matrix(1,0,0,1,0,0)" fill="#e1202a" class="slogan-text-1" data-fill-palette-color="secondary" id="text-1"></path></svg></g></svg></g></svg></g></svg></g><g transform="matrix(1,0,0,1,422.3030510207092,0)"><svg viewBox="0 0 244.43135999999998 244.43135999999998" height="244.43135999999998" width="244.43135999999998"><g data-palette-color="#fd000d"><rect width="66.8112384" height="244.43135999999998" fill="#fd000d" stroke="transparent" data-fill-palette-color="accent" x="0" fill-opacity="1"></rect><rect width="66.8112384" height="244.43135999999998" fill="#fd000d" stroke="transparent" data-fill-palette-color="accent" x="81.47711999999999" fill-opacity="0.75"></rect><rect width="66.8112384" height="244.43135999999998" fill="#fd000d" stroke="transparent" data-fill-palette-color="accent" x="162.95423999999997" fill-opacity="0.5"></rect></g></svg></g></svg></g><defs></defs></svg><rect width="395.52" height="145.00150271109547" fill="none" stroke="none" visibility="hidden"></rect></g></svg></g></svg>